<?xml version="1.0" encoding="utf-8"?>
<!-- Generator: Adobe Illustrator 26.2.1, SVG Export Plug-In . SVG Version: 6.00 Build 0)  -->
<svg version="1.1" id="Ebene_1" xmlns="http://www.w3.org/2000/svg" xmlns:xlink="http://www.w3.org/1999/xlink" x="0px" y="0px"
	 viewBox="0 0 44 38" style="enable-background:new 0 0 44 38;" xml:space="preserve">
<style type="text/css">
	.st0{fill:none;stroke:#000000;stroke-width:1.5;}
</style>
<path class="st0" d="M7.1,3.6h29.8c3.3,0,6,2.7,6,6l0,0c0,3.3-2.7,6-6,6H7.1c-3.3,0-6-2.7-6-6l0,0C1.1,6.4,3.8,3.6,7.1,3.6z"/>
<path class="st0" d="M7.1,22.3h29.8c3.3,0,6,2.7,6,6l0,0c0,3.3-2.7,6-6,6H7.1c-3.3,0-6-2.7-6-6l0,0C1.1,25,3.8,22.3,7.1,22.3z"/>
</svg>
